<svg width="100" height="100" viewBox="0 0 100 100" fill="none" xmlns="http://www.w3.org/2000/svg">
<g id="Group 289721">
<rect id="Rectangle 2696" width="100" height="100" rx="50" fill="#EDEDED"/>
<path id="Subtract" fill-rule="evenodd" clip-rule="evenodd" d="M0 50C0 22.3858 22.3858 0 50 0C77.6142 0 100 22.3858 100 50C100 60.9675 96.4688 71.1103 90.4813 79.3534C83.1804 65.5275 67.7967 56 50 56C32.2033 56 16.8196 65.5275 9.51871 79.3534C3.53121 71.1103 0 60.9675 0 50ZM50 50C61.0457 50 70 41.0457 70 30C70 18.9543 61.0457 10 50 10C38.9543 10 30 18.9543 30 30C30 41.0457 38.9543 50 50 50Z" fill="#D9D9D9"/>
</g>
</svg>
