<svg width="114" height="60" viewBox="0 0 114 60" fill="none" xmlns="http://www.w3.org/2000/svg">
<path d="M28.5 0.0131836H34.6622V51.892H28.5V0.0131836Z" fill="#5FCF89"/>
<path d="M28.5 0.0131836H34.6622V51.892H28.5V0.0131836Z" fill="#5FCF89"/>
<path fill-rule="evenodd" clip-rule="evenodd" d="M28.5004 51.8922L0.77064 3.1576L6.09961 0L33.8293 48.7346L28.5004 51.8922Z" fill="#5FCF89"/>
<path d="M0 0.0131836H6.16216V51.892H0V0.0131836Z" fill="#5FCF89"/>
<path d="M28.5 0.0131836H34.6622V51.892H28.5V0.0131836Z" fill="#5FCF89"/>
<path d="M61.0737 21.2897C58.6216 18.3582 55.3852 16.2316 51.8 15.196C48.2147 14.1603 44.4525 14.2653 41.0197 15.4967C37.5869 16.7282 34.6481 19.0271 32.5988 22.0842C30.5495 25.1412 29.488 28.8096 29.5572 32.5959C29.6263 36.3821 30.8227 40.1045 32.9855 43.2622C35.1483 46.4199 38.1736 48.8614 41.6544 50.2581C45.1352 51.6549 48.9045 51.9399 52.4551 51.0748C56.0057 50.2097 59.1672 48.236 61.5143 45.4192L57.9659 42.2593C56.2173 44.3578 53.862 45.8282 51.2168 46.4727C48.5716 47.1172 45.7635 46.9049 43.1702 45.8643C40.577 44.8237 38.3231 43.0048 36.7119 40.6523C35.1006 38.2998 34.2092 35.5266 34.1577 32.7058C34.1062 29.8851 34.897 27.1521 36.4238 24.8746C37.9505 22.5971 40.1399 20.8844 42.6973 19.9669C45.2548 19.0494 48.0576 18.9712 50.7287 19.7428C53.3998 20.5144 55.8109 22.0987 57.6377 24.2827L61.0737 21.2897Z" fill="#5FCF89"/>
<path fill-rule="evenodd" clip-rule="evenodd" d="M61.942 21.3599L57.5687 25.1694L57.1686 24.6911C55.4197 22.6003 53.1127 21.0853 50.5605 20.3481C48.0086 19.6109 45.3359 19.687 42.9013 20.5603C40.4672 21.4336 38.3845 23.063 36.932 25.2298C35.4793 27.3969 34.7243 30.0011 34.7734 32.6943C34.8226 35.388 35.6741 38.0403 37.2165 40.2923C38.7591 42.5444 40.9161 44.2845 43.3954 45.2793C45.8743 46.274 48.5539 46.4751 51.0733 45.8613C53.5923 45.2475 55.833 43.8481 57.4961 41.8522L57.9004 41.3669L62.3774 45.3539L61.9833 45.8268C59.5508 48.7461 56.2747 50.7908 52.5978 51.6866C48.9214 52.5824 45.0236 52.2862 41.4286 50.8436C37.8338 49.4011 34.7116 46.8808 32.4801 43.6227C30.2485 40.3645 29.0121 36.5212 28.9407 32.6078C28.8692 28.694 29.9665 24.8968 32.0898 21.7293C34.2133 18.5616 37.2588 16.1794 40.8149 14.9037C44.3707 13.6281 48.263 13.521 51.9674 14.5911C55.6715 15.6611 59.0121 17.8571 61.542 20.8816L61.942 21.3599ZM61.1063 45.8911C58.8065 48.4567 55.8037 50.259 52.4547 51.075C48.9041 51.9401 45.1349 51.6551 41.6541 50.2584C38.1732 48.8616 35.1479 46.4201 32.9851 43.2624C30.8224 40.1047 29.6259 36.3823 29.5568 32.5961C29.4876 28.8098 30.5491 25.1414 32.5984 22.0844C34.6477 19.0273 37.5865 16.7284 41.0193 15.4969C44.4521 14.2654 48.2143 14.1605 51.7996 15.1962C55.1896 16.1754 58.2677 18.13 60.6657 20.8181C60.8039 20.9729 60.9397 21.1302 61.0733 21.2899L57.6373 24.2829C55.8105 22.0989 53.3994 20.5146 50.7283 19.743C48.0573 18.9714 45.2544 19.0496 42.697 19.9671C40.1395 20.8846 37.9501 22.5973 36.4234 24.8748C34.8966 27.1523 34.1058 29.8853 34.1573 32.706C34.2088 35.5268 35.1002 38.3 36.7115 40.6525C38.3228 43.005 40.5766 44.8239 43.1699 45.8645C45.7631 46.9051 48.5712 47.1174 51.2164 46.4729C53.7552 45.8543 56.027 44.4749 57.7517 42.5096C57.8239 42.4273 57.8952 42.344 57.9655 42.2596C57.9654 42.2596 57.9655 42.2596 57.9655 42.2596L61.5139 45.4195C61.4195 45.5328 61.3237 45.6448 61.2266 45.7554C61.1867 45.8008 61.1466 45.8461 61.1063 45.8911Z" fill="#5FCF89"/>
<path d="M84.1821 21.2897C81.73 18.3582 78.4936 16.2316 74.9084 15.196C71.3231 14.1603 67.5609 14.2653 64.1281 15.4967C60.6953 16.7282 57.7565 19.0271 55.7072 22.0842C53.6579 25.1412 52.5964 28.8096 52.6656 32.5959C52.7347 36.3821 53.9311 40.1045 56.0939 43.2622C58.2567 46.4199 61.282 48.8614 64.7628 50.2581C68.2436 51.6549 72.0129 51.9399 75.5635 51.0748C79.1141 50.2097 82.2756 48.236 84.6227 45.4192L81.0743 42.2593C79.3257 44.3578 76.9704 45.8282 74.3252 46.4727C71.68 47.1172 68.8719 46.9049 66.2786 45.8643C63.6854 44.8237 61.4315 43.0048 59.8202 40.6523C58.209 38.2998 57.3176 35.5266 57.2661 32.7058C57.2146 29.8851 58.0054 27.1521 59.5321 24.8746C61.0589 22.5971 63.2483 20.8844 65.8057 19.9669C68.3632 19.0494 71.166 18.9712 73.8371 19.7428C76.5082 20.5144 78.9193 22.0987 80.7461 24.2827L84.1821 21.2897Z" fill="#5FCF89"/>
<path fill-rule="evenodd" clip-rule="evenodd" d="M85.0504 21.3599L80.6771 25.1694L80.277 24.6911C78.5281 22.6003 76.2211 21.0853 73.6689 20.3481C71.117 19.6109 68.4443 19.687 66.0097 20.5603C63.5756 21.4336 61.4929 23.063 60.0404 25.2298C58.5877 27.3969 57.8327 30.0011 57.8818 32.6943C57.931 35.388 58.7825 38.0403 60.3249 40.2923C61.8674 42.5444 64.0245 44.2845 66.5038 45.2793C68.9827 46.274 71.6623 46.4751 74.1817 45.8613C76.7007 45.2475 78.9414 43.8481 80.6045 41.8522L81.0088 41.3669L85.4858 45.3539L85.0917 45.8268C82.6592 48.7461 79.3831 50.7908 75.7062 51.6866C72.0298 52.5824 68.132 52.2862 64.5369 50.8436C60.9422 49.4011 57.82 46.8808 55.5885 43.6227C53.3569 40.3645 52.1205 36.5212 52.0491 32.6078C51.9776 28.694 53.0749 24.8968 55.1982 21.7293C57.3217 18.5616 60.3672 16.1794 63.9233 14.9037C67.4791 13.6281 71.3714 13.521 75.0758 14.5911C78.7799 15.6611 82.1205 17.8571 84.6504 20.8816L85.0504 21.3599ZM84.2147 45.8911C81.9149 48.4567 78.9121 50.259 75.5631 51.075C72.0125 51.9401 68.2433 51.6551 64.7624 50.2584C61.2816 48.8616 58.2563 46.4201 56.0935 43.2624C53.9308 40.1047 52.7343 36.3823 52.6652 32.5961C52.596 28.8098 53.6575 25.1414 55.7068 22.0844C57.7561 19.0273 60.6949 16.7284 64.1277 15.4969C67.5605 14.2655 71.3227 14.1605 74.908 15.1962C78.298 16.1754 81.3761 18.13 83.7741 20.8181C83.9123 20.9729 84.0481 21.1302 84.1817 21.2899L80.7457 24.2829C78.9189 22.0989 76.5078 20.5146 73.8367 19.743C71.1657 18.9714 68.3628 19.0496 65.8054 19.9671C63.2479 20.8846 61.0585 22.5973 59.5318 24.8748C58.005 27.1523 57.2142 29.8853 57.2657 32.706C57.3172 35.5268 58.2086 38.3 59.8199 40.6525C61.4311 43.005 63.685 44.8239 66.2783 45.8645C68.8715 46.9051 71.6796 47.1174 74.3248 46.4729C76.8636 45.8543 79.1354 44.4749 80.86 42.5096C80.9323 42.4273 81.0036 42.344 81.0739 42.2596C81.0738 42.2596 81.0739 42.2596 81.0739 42.2596L84.6223 45.4195C84.5278 45.5328 84.4321 45.6448 84.335 45.7554C84.2951 45.8008 84.255 45.8461 84.2147 45.8911Z" fill="#5FCF89"/>
<path fill-rule="evenodd" clip-rule="evenodd" d="M114 33.0267C114 28.3203 112.348 23.7839 109.368 20.308C106.388 16.8321 102.296 14.6677 97.8945 14.2398C93.493 13.8119 89.1003 15.1513 85.5786 17.9951C82.057 20.8389 79.6608 24.9818 78.8604 29.6103C78.06 34.2389 78.9132 39.0189 81.2526 43.0119C83.592 47.005 87.2485 49.9227 91.5044 51.1923C95.7604 52.4619 100.308 51.9917 104.255 49.874C108.202 47.7563 111.264 44.1441 112.838 39.7464L108.547 38.0048C107.898 39.8746 106.883 41.5927 105.551 43.0327C103.096 45.687 99.766 47.1788 96.2931 47.18C92.8202 47.1812 89.489 45.6917 87.0324 43.0391C84.5758 40.3866 83.195 36.7882 83.1938 33.0358L96.2884 33.0312L96.2948 33.0312L96.2837 33.0267H114ZM87.3754 22.6566C87.2565 22.7758 87.1395 22.8976 87.0244 23.022C84.5687 25.6754 83.1891 29.2742 83.1891 33.0266L96.2837 33.0266H109.378C109.378 29.2742 107.999 25.6754 105.543 23.022C103.087 20.3686 99.7565 18.8779 96.2836 18.8779C93.2448 18.8779 90.3149 20.0192 87.9848 22.0821C87.7768 22.2663 87.5735 22.4578 87.3754 22.6566Z" fill="#5FCF89"/>
<path fill-rule="evenodd" clip-rule="evenodd" d="M81.6484 0.0131836H87.8106V22.2393C87.5397 22.4877 87.2774 22.7488 87.0243 23.0223C84.5686 25.6757 83.189 29.2745 83.189 33.027H87.8106V33.0344L83.1937 33.036C83.1949 36.7885 84.5757 40.3868 87.0323 43.0394C87.2829 43.31 87.5426 43.5684 87.8106 43.8145V51.892H81.6484V0.0131836Z" fill="#5FCF89"/>
<path d="M81.6484 33.0269H114V36.171H81.6484V33.0269Z" fill="#5FCF89"/>
<path d="M80.1084 31.4546H112.46V34.5988H80.1084V31.4546Z" fill="#5FCF89"/>
</svg>
