<svg width="74" height="39" viewBox="0 0 74 39" fill="none" xmlns="http://www.w3.org/2000/svg">
<path d="M18.5 0.00830078H22.5V33.0083H18.5V0.00830078Z" fill="#5FCF89"/>
<path d="M18.5 0.00830078H22.5V33.0083H18.5V0.00830078Z" fill="#5FCF89"/>
<path fill-rule="evenodd" clip-rule="evenodd" d="M18.4998 33.0085L0.499829 2.00854L3.95898 0L21.959 31L18.4998 33.0085Z" fill="#5FCF89"/>
<path d="M0 0.00830078H4V33.0083H0V0.00830078Z" fill="#5FCF89"/>
<path d="M18.5 0.00830078H22.5V33.0083H18.5V0.00830078Z" fill="#5FCF89"/>
<path d="M39.6447 13.5424C38.053 11.6777 35.9522 10.325 33.6249 9.66621C31.2977 9.00742 28.8555 9.07419 26.6272 9.85754C24.3989 10.6409 22.4913 12.1032 21.161 14.0478C19.8308 15.9923 19.1418 18.3258 19.1866 20.7343C19.2315 23.1427 20.0082 25.5105 21.4121 27.5191C22.816 29.5277 24.7798 31.0807 27.0393 31.9692C29.2987 32.8577 31.7454 33.0389 34.0502 32.4886C36.355 31.9384 38.4072 30.6829 39.9307 28.8912L37.6274 26.8812C36.4924 28.216 34.9635 29.1513 33.2464 29.5613C31.5293 29.9713 29.7065 29.8362 28.0232 29.1743C26.3399 28.5124 24.8768 27.3554 23.8309 25.859C22.785 24.3625 22.2064 22.5985 22.173 20.8042C22.1395 19.0099 22.6529 17.2715 23.6439 15.8227C24.6349 14.374 26.0561 13.2846 27.7162 12.701C29.3763 12.1174 31.1957 12.0677 32.9296 12.5585C34.6634 13.0493 36.2285 14.057 37.4143 15.4462L39.6447 13.5424Z" fill="#5FCF89"/>
<path fill-rule="evenodd" clip-rule="evenodd" d="M40.2081 13.5871L37.3693 16.0103L37.1096 15.706C35.9743 14.3761 34.4768 13.4124 32.8201 12.9434C31.1636 12.4745 29.4287 12.5229 27.8484 13.0785C26.2683 13.6339 24.9164 14.6704 23.9735 16.0487C23.0305 17.4272 22.5404 19.0837 22.5724 20.7969C22.6043 22.5103 23.157 24.1974 24.1582 25.6299C25.1595 27.0625 26.5597 28.1693 28.1691 28.8021C29.7782 29.4349 31.5176 29.5628 33.153 29.1723C34.7881 28.7819 36.2426 27.8918 37.3222 26.6222L37.5846 26.3135L40.4907 28.8496L40.2349 29.1504C38.6559 31.0074 36.5293 32.308 34.1426 32.8778C31.7562 33.4476 29.226 33.2592 26.8924 32.3416C24.5589 31.424 22.5322 29.8209 21.0837 27.7484C19.6351 25.6759 18.8326 23.2311 18.7862 20.7418C18.7398 18.2523 19.4521 15.8369 20.8304 13.822C22.2088 11.8071 24.1857 10.2918 26.494 9.48028C28.8022 8.66888 31.3287 8.60075 33.7334 9.28144C36.1378 9.96206 38.3062 11.3589 39.9484 13.2828L40.2081 13.5871ZM39.6656 29.1913C38.1728 30.8233 36.2236 31.9697 34.0497 32.4888C31.7449 33.0391 29.2982 32.8578 27.0387 31.9693C24.7793 31.0808 22.8154 29.5278 21.4115 27.5192C20.0076 25.5106 19.231 23.1428 19.1861 20.7344C19.1412 18.3259 19.8303 15.9925 21.1605 14.0479C22.4908 12.1033 24.3984 10.641 26.6267 9.85764C28.855 9.0743 31.2971 9.00752 33.6244 9.66631C35.825 10.2892 37.823 11.5325 39.3796 13.2424C39.4693 13.3409 39.5575 13.441 39.6442 13.5425L37.4138 15.4464C36.228 14.0572 34.6629 13.0494 32.9291 12.5586C31.1952 12.0678 29.3758 12.1175 27.7157 12.7011C26.0556 13.2847 24.6344 14.3741 23.6434 15.8229C22.6523 17.2716 22.139 19.01 22.1724 20.8043C22.2059 22.5986 22.7845 24.3626 23.8304 25.8591C24.8763 27.3555 26.3394 28.5125 28.0227 29.1744C29.706 29.8363 31.5288 29.9714 33.2459 29.5614C34.8939 29.1679 36.3686 28.2905 37.488 27.0404C37.5349 26.988 37.5812 26.935 37.6268 26.8813C37.6268 26.8813 37.6269 26.8813 37.6268 26.8813L39.9302 28.8913C39.8689 28.9634 39.8067 29.0346 39.7437 29.105C39.7178 29.1339 39.6918 29.1627 39.6656 29.1913Z" fill="#5FCF89"/>
<path d="M54.6447 13.5424C53.053 11.6777 50.9522 10.325 48.6249 9.66621C46.2977 9.00742 43.8555 9.07419 41.6272 9.85754C39.3989 10.6409 37.4913 12.1032 36.161 14.0478C34.8308 15.9923 34.1418 18.3258 34.1866 20.7343C34.2315 23.1427 35.0082 25.5105 36.4121 27.5191C37.816 29.5277 39.7798 31.0807 42.0393 31.9692C44.2987 32.8577 46.7454 33.0389 49.0502 32.4886C51.355 31.9384 53.4072 30.6829 54.9307 28.8912L52.6274 26.8812C51.4924 28.216 49.9635 29.1513 48.2464 29.5613C46.5293 29.9713 44.7065 29.8362 43.0232 29.1743C41.3399 28.5124 39.8768 27.3554 38.8309 25.859C37.785 24.3625 37.2064 22.5985 37.173 20.8042C37.1395 19.0099 37.6529 17.2715 38.6439 15.8227C39.6349 14.374 41.0561 13.2846 42.7162 12.701C44.3763 12.1174 46.1957 12.0677 47.9296 12.5585C49.6634 13.0493 51.2285 14.057 52.4143 15.4462L54.6447 13.5424Z" fill="#5FCF89"/>
<path fill-rule="evenodd" clip-rule="evenodd" d="M55.2081 13.5871L52.3693 16.0103L52.1096 15.706C50.9743 14.3761 49.4768 13.4124 47.8201 12.9434C46.1636 12.4745 44.4287 12.5229 42.8484 13.0785C41.2683 13.6339 39.9164 14.6704 38.9735 16.0487C38.0305 17.4272 37.5404 19.0837 37.5724 20.7969C37.6043 22.5103 38.157 24.1974 39.1582 25.6299C40.1595 27.0625 41.5597 28.1693 43.1691 28.8021C44.7782 29.4349 46.5176 29.5628 48.153 29.1723C49.7881 28.7819 51.2426 27.8918 52.3222 26.6222L52.5846 26.3135L55.4907 28.8496L55.2349 29.1504C53.6559 31.0074 51.5293 32.308 49.1426 32.8778C46.7562 33.4476 44.226 33.2592 41.8924 32.3416C39.5589 31.424 37.5322 29.8209 36.0837 27.7484C34.6351 25.6759 33.8326 23.2311 33.7862 20.7418C33.7398 18.2523 34.4521 15.8369 35.8304 13.822C37.2088 11.8071 39.1857 10.2918 41.494 9.48028C43.8022 8.66888 46.3287 8.60075 48.7334 9.28144C51.1378 9.96206 53.3062 11.3589 54.9484 13.2828L55.2081 13.5871ZM54.6656 29.1913C53.1728 30.8233 51.2236 31.9697 49.0497 32.4888C46.7449 33.0391 44.2982 32.8578 42.0387 31.9693C39.7793 31.0808 37.8154 29.5278 36.4115 27.5192C35.0076 25.5106 34.231 23.1428 34.1861 20.7344C34.1412 18.3259 34.8303 15.9925 36.1605 14.0479C37.4908 12.1033 39.3984 10.641 41.6267 9.85764C43.855 9.0743 46.2971 9.00752 48.6244 9.66631C50.825 10.2892 52.823 11.5325 54.3796 13.2424C54.4693 13.3409 54.5575 13.441 54.6442 13.5425L52.4138 15.4464C51.228 14.0572 49.6629 13.0494 47.9291 12.5586C46.1952 12.0678 44.3758 12.1175 42.7157 12.7011C41.0556 13.2847 39.6344 14.3741 38.6434 15.8229C37.6523 17.2716 37.139 19.01 37.1724 20.8043C37.2059 22.5986 37.7845 24.3626 38.8304 25.8591C39.8763 27.3555 41.3394 28.5125 43.0227 29.1744C44.706 29.8363 46.5288 29.9714 48.2459 29.5614C49.8939 29.1679 51.3686 28.2905 52.488 27.0404C52.5349 26.988 52.5812 26.935 52.6268 26.8813C52.6268 26.8813 52.6269 26.8813 52.6268 26.8813L54.9302 28.8913C54.8689 28.9634 54.8067 29.0346 54.7437 29.105C54.7178 29.1339 54.6918 29.1627 54.6656 29.1913Z" fill="#5FCF89"/>
<path fill-rule="evenodd" clip-rule="evenodd" d="M74 21.0083C74 18.0146 72.9277 15.129 70.9934 12.918C69.0592 10.707 66.4028 9.33023 63.5457 9.05803C60.6886 8.78583 57.8372 9.63784 55.5512 11.4468C53.2652 13.2557 51.7097 15.891 51.1902 18.8352C50.6706 21.7794 51.2245 24.8199 52.743 27.3599C54.2616 29.8999 56.6351 31.7558 59.3977 32.5634C62.1604 33.371 65.1125 33.072 67.6746 31.7249C70.2367 30.3778 72.2238 28.0801 73.2458 25.2827L70.4607 24.1749C70.039 25.3643 69.3801 26.4572 68.5157 27.3731C66.9222 29.0615 64.7605 30.0105 62.5061 30.0112C60.2518 30.012 58.0895 29.0645 56.4948 27.3772C54.9002 25.6899 54.0039 23.4011 54.0031 21.0141L62.5031 21.0112L62.5073 21.0112L62.5 21.0083H74ZM56.7175 14.4119C56.6403 14.4877 56.5643 14.5652 56.4896 14.6443C54.8956 16.3322 54 18.6214 54 21.0083L62.5 21.0083H71C71 18.6214 70.1045 16.3322 68.5104 14.6444C66.9164 12.9565 64.7544 12.0083 62.5 12.0083C60.5275 12.0083 58.6256 12.7343 57.1131 14.0465C56.978 14.1637 56.8461 14.2855 56.7175 14.4119Z" fill="#5FCF89"/>
<path fill-rule="evenodd" clip-rule="evenodd" d="M53 0.00830078H57V14.1463C56.8242 14.3043 56.6539 14.4704 56.4896 14.6443C54.8955 16.3322 54 18.6214 54 21.0083H57V21.0131L54.003 21.0141C54.0039 23.401 54.9002 25.6899 56.4948 27.3772C56.6575 27.5493 56.826 27.7137 57 27.8702V33.0083H53V0.00830078Z" fill="#5FCF89"/>
<path d="M53 21.0083H74V23.0083H53V21.0083Z" fill="#5FCF89"/>
<path d="M52 20.0083H73V22.0083H52V20.0083Z" fill="#5FCF89"/>
</svg>
