<svg xmlns="http://www.w3.org/2000/svg" width="61" height="32" viewBox="0 0 61 32" fill="none">
  <path d="M15.25 0.00683594H18.5473V27.6755H15.25V0.00683594Z" fill="#5FCF89"/>
  <path d="M15.25 0.00683594H18.5473V27.6755H15.25V0.00683594Z" fill="#5FCF89"/>
  <path fill-rule="evenodd" clip-rule="evenodd" d="M15.25 27.6759L0.412205 1.68405L3.26367 0L18.1015 25.9918L15.25 27.6759Z" fill="#5FCF89"/>
  <path d="M0 0.00683594H3.2973V27.6755H0V0.00683594Z" fill="#5FCF89"/>
  <path d="M15.25 0.00683594H18.5473V27.6755H15.25V0.00683594Z" fill="#5FCF89"/>
  <path d="M32.6794 11.3548C31.3674 9.79136 29.6356 8.65716 27.7172 8.1048C25.7987 7.55244 23.7857 7.60843 21.9488 8.26522C20.1119 8.92201 18.5394 10.1481 17.4429 11.7785C16.3463 13.4089 15.7783 15.3654 15.8153 17.3848C15.8523 19.4041 16.4925 21.3894 17.6498 23.0735C18.8071 24.7576 20.4259 26.0597 22.2884 26.8046C24.151 27.5496 26.1679 27.7016 28.0677 27.2402C29.9676 26.7788 31.6593 25.7261 32.9152 24.2239L31.0165 22.5386C30.0809 23.6578 28.8206 24.442 27.4051 24.7857C25.9897 25.1295 24.4871 25.0162 23.0995 24.4613C21.7119 23.9063 20.5059 22.9362 19.6437 21.6815C18.7816 20.4269 18.3046 18.9478 18.277 17.4434C18.2495 15.939 18.6726 14.4814 19.4896 13.2667C20.3065 12.0521 21.478 11.1386 22.8465 10.6493C24.215 10.16 25.7147 10.1183 27.144 10.5298C28.5732 10.9413 29.8634 11.7863 30.8409 12.951L32.6794 11.3548Z" fill="#5FCF89"/>
  <path fill-rule="evenodd" clip-rule="evenodd" d="M33.1443 11.3919L30.8042 13.4236L30.5901 13.1685C29.6543 12.0534 28.4199 11.2454 27.0542 10.8522C25.6887 10.4591 24.2586 10.4997 22.9559 10.9654C21.6534 11.4312 20.539 12.3002 19.7617 13.4558C18.9844 14.6116 18.5804 16.0005 18.6067 17.4369C18.633 18.8735 19.0886 20.2881 19.914 21.4892C20.7394 22.6903 21.8936 23.6183 23.2202 24.1489C24.5467 24.6794 25.9805 24.7867 27.3286 24.4593C28.6764 24.1319 29.8754 23.3856 30.7653 22.3211L30.9817 22.0623L33.3773 24.1887L33.1664 24.4409C31.8648 25.9978 30.1118 27.0883 28.1443 27.5661C26.1772 28.0439 24.0915 27.8859 22.1678 27.1165C20.2443 26.3472 18.5736 25.003 17.3796 23.2654C16.1855 21.5277 15.5239 19.4779 15.4857 17.3908C15.4474 15.3034 16.0346 13.2782 17.1708 11.5889C18.307 9.89945 19.9366 8.62896 21.8395 7.94857C23.7421 7.26826 25.8248 7.21114 27.807 7.78185C29.789 8.35251 31.5765 9.5237 32.9302 11.1368L33.1443 11.3919ZM32.6971 24.4752C31.4665 25.8435 29.8598 26.8047 28.0678 27.2399C26.1679 27.7013 24.151 27.5493 22.2885 26.8044C20.4259 26.0595 18.8071 24.7573 17.6498 23.0732C16.4926 21.3891 15.8524 19.4038 15.8154 17.3845C15.7784 15.3652 16.3464 13.4087 17.4429 11.7783C18.5395 10.1478 20.112 8.92176 21.9488 8.26497C23.7857 7.60817 25.7988 7.55219 27.7172 8.10455C29.5312 8.62682 31.1782 9.66929 32.4614 11.1029C32.5353 11.1855 32.608 11.2694 32.6795 11.3545L30.8409 12.9508C29.8634 11.786 28.5732 10.9411 27.144 10.5295C25.7147 10.118 24.215 10.1597 22.8465 10.6491C21.478 11.1384 20.3065 12.0518 19.4896 13.2665C18.6726 14.4811 18.2495 15.9387 18.2771 17.4432C18.3046 18.9476 18.7816 20.4266 19.6437 21.6813C20.5059 22.936 21.7119 23.906 23.0995 24.461C24.4872 25.016 25.9897 25.1292 27.4052 24.7855C28.7637 24.4556 29.9793 23.7199 30.9021 22.6717C30.9407 22.6278 30.9789 22.5834 31.0165 22.5384C31.0165 22.5384 31.0165 22.5384 31.0165 22.5384L32.9152 24.2236C32.8647 24.2841 32.8134 24.3438 32.7615 24.4028C32.7402 24.427 32.7187 24.4512 32.6971 24.4752Z" fill="#5FCF89"/>
  <path d="M45.0447 11.3548C43.7326 9.79136 42.0009 8.65716 40.0824 8.1048C38.164 7.55244 36.1509 7.60843 34.314 8.26522C32.4772 8.92201 30.9047 10.1481 29.8081 11.7785C28.7116 13.4089 28.1436 15.3654 28.1806 17.3848C28.2176 19.4041 28.8578 21.3894 30.015 23.0735C31.1723 24.7576 32.7911 26.0597 34.6537 26.8046C36.5162 27.5496 38.5331 27.7016 40.433 27.2402C42.3329 26.7788 44.0245 25.7261 45.2804 24.2239L43.3817 22.5386C42.4461 23.6578 41.1858 24.442 39.7704 24.7857C38.355 25.1295 36.8524 25.0162 35.4648 24.4613C34.0772 23.9063 32.8711 22.9362 32.009 21.6815C31.1468 20.4269 30.6698 18.9478 30.6423 17.4434C30.6147 15.939 31.0379 14.4814 31.8548 13.2667C32.6717 12.0521 33.8433 11.1386 35.2117 10.6493C36.5802 10.16 38.08 10.1183 39.5092 10.5298C40.9385 10.9413 42.2286 11.7863 43.2061 12.951L45.0447 11.3548Z" fill="#5FCF89"/>
  <path fill-rule="evenodd" clip-rule="evenodd" d="M45.5095 11.3919L43.1694 13.4236L42.9553 13.1685C42.0195 12.0534 40.7851 11.2454 39.4194 10.8522C38.0539 10.4591 36.6238 10.4997 35.3211 10.9654C34.0186 11.4312 32.9042 12.3002 32.127 13.4558C31.3496 14.6116 30.9456 16.0005 30.972 17.4369C30.9983 18.8735 31.4539 20.2881 32.2792 21.4892C33.1046 22.6903 34.2588 23.6183 35.5854 24.1489C36.9119 24.6794 38.3457 24.7867 39.6938 24.4593C41.0417 24.1319 42.2407 23.3856 43.1306 22.3211L43.3469 22.0623L45.7425 24.1887L45.5316 24.4409C44.23 25.9978 42.477 27.0883 40.5096 27.5661C38.5424 28.0439 36.4567 27.8859 34.533 27.1165C32.6095 26.3472 30.9389 25.003 29.7448 23.2654C28.5507 21.5277 27.8892 19.4779 27.8509 17.3908C27.8127 15.3034 28.3998 13.2782 29.536 11.5889C30.6723 9.89945 32.3019 8.62896 34.2047 7.94857C36.1073 7.26826 38.19 7.21114 40.1723 7.78185C42.1543 8.35251 43.9417 9.5237 45.2955 11.1368L45.5095 11.3919ZM45.0623 24.4752C43.8318 25.8435 42.225 26.8047 40.433 27.2399C38.5331 27.7013 36.5162 27.5493 34.6537 26.8044C32.7912 26.0595 31.1723 24.7573 30.0151 23.0732C28.8578 21.3891 28.2176 19.4038 28.1806 17.3845C28.1436 15.3652 28.7116 13.4087 29.8081 11.7783C30.9047 10.1478 32.4772 8.92176 34.3141 8.26497C36.1509 7.60817 38.164 7.55219 40.0824 8.10455C41.8964 8.62682 43.5434 9.66929 44.8266 11.1029C44.9005 11.1855 44.9732 11.2694 45.0447 11.3545L43.2061 12.9508C42.2286 11.786 40.9385 10.9411 39.5092 10.5295C38.08 10.118 36.5802 10.1597 35.2117 10.6491C33.8433 11.1384 32.6718 12.0518 31.8548 13.2665C31.0379 14.4811 30.6147 15.9387 30.6423 17.4432C30.6698 18.9476 31.1468 20.4266 32.009 21.6813C32.8712 22.936 34.0772 23.906 35.4648 24.461C36.8524 25.016 38.355 25.1292 39.7704 24.7855C41.1289 24.4556 42.3445 23.7199 43.2673 22.6717C43.306 22.6278 43.3441 22.5834 43.3817 22.5384C43.3817 22.5384 43.3817 22.5384 43.3817 22.5384L45.2804 24.2236C45.2299 24.2841 45.1787 24.3438 45.1267 24.4028C45.1054 24.427 45.0839 24.4512 45.0623 24.4752Z" fill="#5FCF89"/>
  <path fill-rule="evenodd" clip-rule="evenodd" d="M60.9995 17.6141C60.9995 15.104 60.1155 12.6846 58.5211 10.8308C56.9266 8.97698 54.7369 7.82266 52.3817 7.59443C50.0266 7.36621 47.6761 8.08056 45.7917 9.59727C43.9073 11.114 42.6251 13.3235 42.1968 15.792C41.7685 18.2606 42.2251 20.8099 43.4769 22.9396C44.7286 25.0692 46.6852 26.6253 48.9625 27.3024C51.2398 27.9796 53.6733 27.7288 55.7853 26.5994C57.8974 25.4699 59.5354 23.5434 60.3778 21.198L58.082 20.2691C57.7343 21.2663 57.1912 22.1827 56.4786 22.9506C55.1651 24.3663 53.3831 25.1619 51.5248 25.1625C49.6665 25.1632 47.8841 24.3688 46.5696 22.9541C45.2551 21.5394 44.5162 19.6203 44.5156 17.6189L51.5223 17.6165L51.5258 17.6165L51.5198 17.6141H60.9995ZM46.7531 12.0834C46.6895 12.147 46.6269 12.2119 46.5653 12.2782C45.2513 13.6934 44.513 15.6128 44.513 17.6141H51.5198H58.5265C58.5265 15.6128 57.7883 13.6934 56.4743 12.2783C55.1603 10.8631 53.3781 10.0681 51.5198 10.0681C49.8938 10.0681 48.326 10.6768 47.0792 11.777C46.9679 11.8752 46.8591 11.9774 46.7531 12.0834Z" fill="#5FCF89"/>
  <path fill-rule="evenodd" clip-rule="evenodd" d="M43.6895 0.00683594H46.9868V11.8608C46.8418 11.9933 46.7014 12.1325 46.566 12.2784C45.252 13.6935 44.5138 15.6129 44.5138 17.6142H46.9868V17.6182L44.5163 17.619C44.517 19.6203 45.2558 21.5395 46.5703 22.9541C46.7044 23.0985 46.8433 23.2363 46.9868 23.3675V27.6755H43.6895V0.00683594Z" fill="#5FCF89"/>
  <path d="M43.6895 17.6143H61.0003V19.2911H43.6895V17.6143Z" fill="#5FCF89"/>
  <path d="M42.8652 16.7759H60.176V18.4528H42.8652V16.7759Z" fill="#5FCF89"/>
</svg>